<?xml version="1.0" standalone="no"?>
<!DOCTYPE svg PUBLIC "-//W3C//DTD SVG 1.0//EN" "http://www.w3.org/TR/2001/REC-SVG-20010904/DTD/svg10.dtd">
<svg xmlns="http://www.w3.org/2000/svg" xmlns:xlink="http://www.w3.org/1999/xlink" id="body_1" width="1440" height="560">

<defs>
    <clipPath  id="1">

    <path id=""  clip-rule="evenodd" transform="matrix(1 0 0 1 0 0)"  d="M1080 0L1080 420L1080 420L0 420L0 420L0 0L0 0L1080 0z" />    </clipPath>
</defs>

<g transform="matrix(1.3333 0 0 1.3333 0 0)">
	<g clip-path="url(#1)" >
    <path id=""  transform="matrix(1 0 0 -1 0 420)"  d="M1080 414.75C 972 353.40002 756 142.35 540 108L540 108L540 108C 324 73.649994 108 216 0 243L0 243L0 420L0 420L1080 420z" stroke="#FFFFFF" stroke-width="1" fill="rgba(35, 82, 185, 1)" fill-rule="nonzero" />
	</g>
</g>
</svg>